<?xml version="1.0" encoding="UTF-8" standalone="no"?>
<!-- Created with Inkscape (http://www.inkscape.org/) -->

<svg
   xmlns:osb="http://www.openswatchbook.org/uri/2009/osb"
   xmlns:dc="http://purl.org/dc/elements/1.1/"
   xmlns:cc="http://creativecommons.org/ns#"
   xmlns:rdf="http://www.w3.org/1999/02/22-rdf-syntax-ns#"
   xmlns:svg="http://www.w3.org/2000/svg"
   xmlns="http://www.w3.org/2000/svg"
   xmlns:sodipodi="http://sodipodi.sourceforge.net/DTD/sodipodi-0.dtd"
   xmlns:inkscape="http://www.inkscape.org/namespaces/inkscape"
   width="792pt"
   height="612pt"
   id="svg4693"
   version="1.1"
   inkscape:version="0.92.4 (5da689c313, 2019-01-14)"
   sodipodi:docname="defaultICON.svg">
  <title
     id="title3406">Wiki CBurnett Chess Pieces</title>
  <defs
     id="defs4695">
    <linearGradient
       id="linearGradient5061"
       osb:paint="solid">
      <stop
         style="stop-color:#000000;stop-opacity:1;"
         offset="0"
         id="stop5059" />
    </linearGradient>
    <linearGradient
       id="linearGradient5041"
       osb:paint="solid">
      <stop
         style="stop-color:#000000;stop-opacity:1;"
         offset="0"
         id="stop5039" />
    </linearGradient>
    <linearGradient
       id="linearGradient5027"
       osb:paint="solid">
      <stop
         style="stop-color:#000000;stop-opacity:1;"
         offset="0"
         id="stop5025" />
    </linearGradient>
    <inkscape:perspective
       sodipodi:type="inkscape:persp3d"
       inkscape:vp_x="0 : 408 : 1"
       inkscape:vp_y="0 : 1000 : 0"
       inkscape:vp_z="1056 : 408 : 1"
       inkscape:persp3d-origin="528 : 272 : 1"
       id="perspective4200" />
    <linearGradient
       id="speed-grad-6"
       x1="0"
       y1="0"
       x2="1"
       y2="0"
       spreadMethod="pad">
      <stop
         offset="30%"
         stop-color="#000"
         stop-opacity="0.6"
         id="stop7231" />
      <stop
         offset="100%"
         stop-color="#000"
         stop-opacity="0"
         id="stop7233" />
    </linearGradient>
    <linearGradient
       id="speed-grad"
       x1="0"
       y1="0"
       x2="1"
       y2="0"
       spreadMethod="pad">
      <stop
         offset="30%"
         stop-color="#000"
         stop-opacity="0.6"
         id="stop7072" />
      <stop
         offset="100%"
         stop-color="#000"
         stop-opacity="0"
         id="stop7074" />
    </linearGradient>
  </defs>
  <sodipodi:namedview
     inkscape:document-units="in"
     pagecolor="#ffffff"
     bordercolor="#666666"
     borderopacity="1.0"
     inkscape:pageopacity="0.0"
     inkscape:pageshadow="2"
     inkscape:zoom="4.3838129"
     inkscape:cx="182.56628"
     inkscape:cy="359.79762"
     inkscape:current-layer="layer5"
     id="namedview4697"
     showgrid="false"
     inkscape:window-width="1902"
     inkscape:window-height="1093"
     inkscape:window-x="130"
     inkscape:window-y="130"
     inkscape:window-maximized="0"
     showguides="false"
     inkscape:guide-bbox="true">
    <sodipodi:guide
       position="115.65275,380.83287"
       orientation="0,1"
       id="guide1528"
       inkscape:locked="false" />
    <sodipodi:guide
       position="70.942811,358.36385"
       orientation="1,0"
       id="guide5598"
       inkscape:locked="false" />
    <sodipodi:guide
       position="299.05474,361.55741"
       orientation="1,0"
       id="guide5600"
       inkscape:locked="false" />
  </sodipodi:namedview>
  <metadata
     id="metadata4699">
    <rdf:RDF>
      <cc:Work
         rdf:about="">
        <dc:format>image/svg+xml</dc:format>
        <dc:type
           rdf:resource="http://purl.org/dc/dcmitype/StillImage" />
        <dc:title>Wiki CBurnett Chess Pieces</dc:title>
        <cc:license
           rdf:resource="http://creativecommons.org/licenses/by-sa/4.0/" />
        <dc:contributor>
          <cc:Agent>
            <dc:title />
          </cc:Agent>
        </dc:contributor>
        <dc:creator>
          <cc:Agent>
            <dc:title>C. Burnett, I. Pihlajisto, H. G. Muller, U. M. János, alwey</dc:title>
          </cc:Agent>
        </dc:creator>
      </cc:Work>
      <cc:License
         rdf:about="http://creativecommons.org/licenses/by-sa/4.0/">
        <cc:permits
           rdf:resource="http://creativecommons.org/ns#Reproduction" />
        <cc:permits
           rdf:resource="http://creativecommons.org/ns#Distribution" />
        <cc:requires
           rdf:resource="http://creativecommons.org/ns#Notice" />
        <cc:requires
           rdf:resource="http://creativecommons.org/ns#Attribution" />
        <cc:permits
           rdf:resource="http://creativecommons.org/ns#DerivativeWorks" />
        <cc:requires
           rdf:resource="http://creativecommons.org/ns#ShareAlike" />
      </cc:License>
    </rdf:RDF>
  </metadata>
  <g
     inkscape:label="Layer 1"
     inkscape:groupmode="layer"
     id="layer1" />
  <g
     inkscape:groupmode="layer"
     id="layer4"
     inkscape:label="Layer 2" />
  <g
     inkscape:groupmode="layer"
     id="layer5"
     inkscape:label="Layer 3">
    <g
       id="R"
       inkscape:label="#g969">
      <ellipse
         ry="14.899658"
         rx="14.89966"
         style="fill:#ffffff;fill-opacity:1;stroke:#ff0000;stroke-width:0.40000001;stroke-miterlimit:4;stroke-dasharray:none;stroke-opacity:1"
         cy="421"
         cx="87"
         id="path506" />
      <circle
         r="12.42885"
         style="fill:none;fill-opacity:1;stroke:#f70000;stroke-width:1.2;stroke-miterlimit:4;stroke-dasharray:none;stroke-opacity:1"
         cy="421"
         cx="87"
         id="path495" />
      <g
         aria-label="車"
         transform="scale(0.90168252,1.1090378)"
         style="font-style:normal;font-variant:normal;font-weight:normal;font-stretch:normal;font-size:22.53343582px;line-height:1.25;font-family:STKaiti;-inkscape-font-specification:STKaiti;letter-spacing:0px;word-spacing:0px;fill:#ff0000;fill-opacity:1;stroke:none;stroke-width:0.40000001;stroke-miterlimit:4;stroke-dasharray:none"
         id="text4218">
        <path
           d="m 95.416945,383.97243 q -4.401062,0 -8.273996,0.70417 -1.232297,0.52813 -0.880212,-0.70417 0.528127,-1.76042 2.112509,-1.40834 1.584383,0.17604 7.041699,0 0,-0.52813 0,-1.2323 -1.760425,0 -2.992722,0.17605 -1.584382,0.70417 -1.936467,-0.70417 -0.176043,-1.58439 -0.352085,-3.34481 -0.352085,-1.40834 0.880212,-1.58438 0.70417,-0.17605 1.232298,0.17604 1.408339,0 2.992722,0 0.352085,-0.52813 0,-1.2323 -4.048977,0 -5.985444,0.52813 -0.880213,0.17604 -0.70417,-0.52813 0.528127,-1.58438 1.760424,-1.40834 1.40834,0.35209 4.92919,0.17605 0.176042,-1.05626 0.528127,-1.40834 0.528127,-0.35209 1.232297,-0.17605 0.70417,0.17605 0.880213,1.40834 h 4.22502 q 2.11251,0 2.11251,0.52813 0.52813,0.52813 -0.35209,0.88021 -2.81668,-0.17604 -5.98544,0 -0.176043,0.35209 -0.176043,1.2323 1.232297,0 2.992723,0 1.76042,-1.2323 2.46459,0.70417 -0.17604,2.28855 -0.35208,4.04898 -0.17604,1.23229 -2.11251,0.70417 -0.880213,-0.17605 -2.992723,0 -0.176042,0.52812 0,1.05625 5.985443,0 9.682333,0.17604 -1.40834,2.99273 -3.16876,2.11251 -3.34481,-0.88021 -6.513573,-0.88021 0.176043,1.2323 0,1.76043 -0.352085,0.88021 -1.40834,0.88021 -1.232297,-0.17604 -0.880212,-2.64064 z m -2.992722,-5.98544 q 1.584382,0.17604 2.81668,0 0.352085,-0.52813 0,-0.88022 0.352085,-0.17604 -2.464595,0 -0.70417,0.35209 -0.352085,0.88022 z m 0,1.58438 q 0,0.70417 0.528127,0.70417 1.056255,0.17604 2.288553,0 0.352085,-0.52813 0,-1.2323 -2.81668,-0.17604 -2.81668,0.52813 z m 5.281274,0.17604 q -0.176042,0.52813 0.176043,0.52813 0.352085,0.17604 2.64064,0 0.35208,0 0.52812,-0.52813 0,-0.52813 -0.35208,-0.70417 -1.056256,-0.17604 -2.640638,0 -0.352085,0 -0.352085,0.70417 z m 0,-1.76042 q 0.880212,0.17604 3.168763,0 0.52813,-0.88022 -0.52813,-1.05626 h -2.288548 q -0.528127,0 -0.352085,1.05626 z"
           style="font-style:normal;font-variant:normal;font-weight:normal;font-stretch:normal;font-family:LiSu;-inkscape-font-specification:LiSu;fill:#ff0000;fill-opacity:1;stroke-width:0.40000001;stroke-miterlimit:4;stroke-dasharray:none"
           id="path198" />
      </g>
    </g>
    <g
       id="r"
       inkscape:label="#g975">
      <ellipse
         ry="14.899658"
         rx="14.89966"
         style="fill:#ffffff;fill-opacity:1;stroke:#000000;stroke-width:0.40000001;stroke-miterlimit:4;stroke-dasharray:none;stroke-opacity:1"
         cy="459.9173"
         cx="87.823097"
         id="path506-6" />
      <circle
         r="12.42885"
         style="fill:none;fill-opacity:1;stroke:#000000;stroke-width:1.2;stroke-miterlimit:4;stroke-dasharray:none;stroke-opacity:1"
         cy="459.9173"
         cx="87.823097"
         id="path495-8" />
      <g
         aria-label="車"
         transform="scale(0.90168252,1.1090378)"
         style="font-style:normal;font-variant:normal;font-weight:normal;font-stretch:normal;font-size:22.53343582px;line-height:1.25;font-family:STKaiti;-inkscape-font-specification:STKaiti;letter-spacing:0px;word-spacing:0px;fill:#000000;fill-opacity:1;stroke:none;stroke-width:0.40000001;stroke-miterlimit:4;stroke-dasharray:none"
         id="text4218-0">
        <path
           d="m 96.329787,419.06343 q -4.401062,0 -8.273996,0.70417 -1.232297,0.52813 -0.880212,-0.70417 0.528127,-1.76042 2.112509,-1.40834 1.584382,0.17605 7.041699,0 0,-0.52812 0,-1.23229 -1.760425,0 -2.992722,0.17604 -1.584382,0.70417 -1.936467,-0.70417 -0.176043,-1.58438 -0.352085,-3.34481 -0.352085,-1.40834 0.880212,-1.58438 0.70417,-0.17604 1.232297,0.17604 1.40834,0 2.992722,0 0.352085,-0.52812 0,-1.23229 -4.048976,0 -5.985444,0.52812 -0.880212,0.17605 -0.704169,-0.52812 0.528127,-1.58439 1.760424,-1.40834 1.40834,0.35208 4.929189,0.17604 0.176043,-1.05626 0.528128,-1.40834 0.528127,-0.35209 1.232297,-0.17604 0.70417,0.17604 0.880212,1.40834 h 4.225019 q 2.11251,0 2.11251,0.52812 0.52813,0.52813 -0.35208,0.88022 -2.81668,-0.17605 -5.985449,0 -0.176042,0.35208 -0.176042,1.23229 1.232297,0 2.992721,0 1.76043,-1.23229 2.4646,0.70417 -0.17605,2.28855 -0.35209,4.04898 -0.17604,1.2323 -2.11251,0.70417 -0.88021,-0.17604 -2.992721,0 -0.176043,0.52813 0,1.05625 5.985441,0 9.682331,0.17605 -1.40834,2.99272 -3.16876,2.11251 -3.34481,-0.88022 -6.513571,-0.88022 0.176042,1.2323 0,1.76043 -0.352085,0.88021 -1.40834,0.88021 -1.232297,-0.17604 -0.880212,-2.64064 z m -2.992722,-5.98544 q 1.584382,0.17604 2.816679,0 0.352085,-0.52813 0,-0.88021 0.352085,-0.17604 -2.464594,0 -0.70417,0.35208 -0.352085,0.88021 z m 0,1.58438 q 0,0.70417 0.528127,0.70417 1.056255,0.17604 2.288552,0 0.352085,-0.52813 0,-1.2323 -2.816679,-0.17604 -2.816679,0.52813 z m 5.281274,0.17604 q -0.176043,0.52813 0.176042,0.52813 0.352085,0.17604 2.640639,0 0.35208,0 0.52813,-0.52813 0,-0.52812 -0.35209,-0.70417 -1.05625,-0.17604 -2.640636,0 -0.352085,0 -0.352085,0.70417 z m 0,-1.76042 q 0.880212,0.17604 3.168761,0 0.52813,-0.88021 -0.52812,-1.05625 h -2.288556 q -0.528128,0 -0.352085,1.05625 z"
           style="font-style:normal;font-variant:normal;font-weight:normal;font-stretch:normal;font-family:LiSu;-inkscape-font-specification:LiSu;fill:#000000;fill-opacity:1;stroke-width:0.40000001;stroke-miterlimit:4;stroke-dasharray:none"
           id="path219" />
      </g>
    </g>
    <g
       id="N"
       inkscape:label="#g981">
      <ellipse
         ry="14.899658"
         rx="14.89966"
         style="fill:#ffffff;fill-opacity:1;stroke:#ff0000;stroke-width:0.40000001;stroke-miterlimit:4;stroke-dasharray:none;stroke-opacity:1"
         cy="421"
         cx="119.78365"
         id="path506-64" />
      <circle
         r="12.42885"
         style="fill:none;fill-opacity:1;stroke:#f70000;stroke-width:1.2;stroke-miterlimit:4;stroke-dasharray:none;stroke-opacity:1"
         cy="421"
         cx="119.78365"
         id="path495-0" />
      <g
         aria-label="马 "
         transform="scale(0.90168252,1.1090378)"
         style="font-style:normal;font-variant:normal;font-weight:normal;font-stretch:normal;font-size:22.53343582px;line-height:1.25;font-family:STKaiti;-inkscape-font-specification:STKaiti;letter-spacing:0px;word-spacing:0px;fill:#ff0000;fill-opacity:1;stroke:none;stroke-width:0.40000001;stroke-miterlimit:4;stroke-dasharray:none"
         id="text4218-6">
        <path
           d="m 136.88048,372.70571 q 1.40834,0 1.58439,1.2323 -0.52813,1.2323 -0.88022,5.28127 2.64064,0.17605 4.04898,-0.17604 1.58438,0 1.40834,1.76043 -0.35209,1.76042 -1.58438,3.87293 -1.05626,1.93647 -2.99272,1.93647 -1.40834,-0.17604 -2.4646,-0.88021 -0.88021,-0.88022 -0.35208,-1.2323 1.58438,0.70417 3.16876,0.17604 0.70417,-0.52813 1.05626,-1.40834 1.40834,-2.64064 0,-2.64064 -3.16877,-0.17604 -7.0417,0 -2.81668,0 -4.40106,0.52813 -0.70417,0.17604 -1.2323,-0.35208 -0.35209,-0.52813 -0.17604,-1.05626 1.05625,-1.93647 1.05625,-4.40106 0.52813,-0.52813 1.05625,-0.35209 0.88022,0.35209 1.05626,0.88022 -0.17604,0.88021 -0.70417,2.11251 -0.70417,1.58438 1.05625,1.40834 l 4.75315,-0.17605 q 0.52813,-2.28855 0.52813,-4.04897 0,-0.88022 -2.28855,-0.88022 -5.63336,-0.17604 -7.56983,0.88022 -0.88021,0.17604 -0.88021,-0.70417 0.88021,-1.76043 2.28855,-1.58438 4.92919,0.70417 9.50629,-0.17605 z m 1.2323,9.68234 q 0.17604,0.17604 0.35209,0.35208 0,0.52813 -1.76043,0.88022 -4.04898,0 -8.09795,0.17604 -2.64064,-0.17604 -4.92919,0.52813 -1.2323,0.17604 -1.05626,-0.70417 0.70417,-1.2323 1.76043,-1.2323 1.2323,0.17604 2.64064,0.17604 5.45731,-0.35208 11.09067,-0.17604 z"
           style="font-style:normal;font-variant:normal;font-weight:normal;font-stretch:normal;font-family:LiSu;-inkscape-font-specification:LiSu;fill:#ff0000;fill-opacity:1;stroke-width:0.40000001;stroke-miterlimit:4;stroke-dasharray:none"
           id="path201" />
      </g>
    </g>
    <g
       id="n"
       inkscape:label="#g987">
      <ellipse
         ry="14.899658"
         rx="14.89966"
         style="fill:#ffffff;fill-opacity:1;stroke:#000000;stroke-width:0.40000001;stroke-miterlimit:4;stroke-dasharray:none;stroke-opacity:1"
         cy="459.9173"
         cx="120.03646"
         id="path506-6-2" />
      <circle
         r="12.42885"
         style="fill:none;fill-opacity:1;stroke:#000000;stroke-width:1.2;stroke-miterlimit:4;stroke-dasharray:none;stroke-opacity:1"
         cy="459.9173"
         cx="120.03646"
         id="path495-8-9" />
      <g
         aria-label="马"
         transform="scale(0.90168252,1.1090378)"
         style="font-style:normal;font-variant:normal;font-weight:normal;font-stretch:normal;font-size:22.53343582px;line-height:1.25;font-family:STKaiti;-inkscape-font-specification:STKaiti;letter-spacing:0px;word-spacing:0px;fill:#000000;fill-opacity:1;stroke:none;stroke-width:0.40000001;stroke-miterlimit:4;stroke-dasharray:none"
         id="text4218-0-0">
        <path
           d="m 137.16086,407.79672 q 1.40834,0 1.58438,1.23229 -0.52813,1.2323 -0.88021,5.28128 2.64063,0.17604 4.04897,-0.17605 1.58438,0 1.40834,1.76043 -0.35208,1.76042 -1.58438,3.87293 -1.05625,1.93647 -2.99272,1.93647 -1.40834,-0.17604 -2.4646,-0.88021 -0.88021,-0.88021 -0.35208,-1.2323 1.58438,0.70417 3.16876,0.17604 0.70417,-0.52812 1.05626,-1.40834 1.40834,-2.64063 0,-2.64063 -3.16877,-0.17605 -7.0417,0 -2.81668,0 -4.40106,0.52812 -0.70417,0.17605 -1.2323,-0.35208 -0.35208,-0.52813 -0.17604,-1.05626 1.05625,-1.93646 1.05625,-4.40106 0.52813,-0.52812 1.05626,-0.35208 0.88021,0.35208 1.05625,0.88021 -0.17604,0.88021 -0.70417,2.11251 -0.70417,1.58438 1.05626,1.40834 l 4.75314,-0.17604 q 0.52813,-2.28855 0.52813,-4.04898 0,-0.88021 -2.28855,-0.88021 -5.63336,-0.17604 -7.56983,0.88021 -0.88021,0.17604 -0.88021,-0.70417 0.88021,-1.76042 2.28855,-1.58438 4.92919,0.70417 9.5063,-0.17604 z m 1.23229,9.68233 q 0.17605,0.17604 0.35209,0.35209 0,0.52812 -1.76043,0.88021 -4.04897,0 -8.09795,0.17604 -2.64064,-0.17604 -4.92919,0.52813 -1.2323,0.17604 -1.05625,-0.70417 0.70417,-1.2323 1.76042,-1.2323 1.2323,0.17604 2.64064,0.17604 5.45731,-0.35208 11.09067,-0.17604 z"
           style="font-style:normal;font-variant:normal;font-weight:normal;font-stretch:normal;font-family:LiSu;-inkscape-font-specification:LiSu;fill:#000000;fill-opacity:1;stroke-width:0.40000001;stroke-miterlimit:4;stroke-dasharray:none"
           id="path222" />
      </g>
    </g>
    <g
       id="C"
       inkscape:label="#g993">
      <ellipse
         ry="14.899658"
         rx="14.89966"
         style="fill:#ffffff;fill-opacity:1;stroke:#ff0000;stroke-width:0.40000001;stroke-miterlimit:4;stroke-dasharray:none;stroke-opacity:1"
         cy="421"
         cx="152.56729"
         id="path506-64-5" />
      <circle
         r="12.42885"
         style="fill:none;fill-opacity:1;stroke:#f70000;stroke-width:1.2;stroke-miterlimit:4;stroke-dasharray:none;stroke-opacity:1"
         cy="421"
         cx="152.56729"
         id="path495-0-9" />
      <g
         aria-label="炮 "
         transform="scale(0.90168252,1.1090378)"
         style="font-style:normal;font-variant:normal;font-weight:normal;font-stretch:normal;font-size:22.53343582px;line-height:1.25;font-family:STKaiti;-inkscape-font-specification:STKaiti;letter-spacing:0px;word-spacing:0px;fill:#ff0000;fill-opacity:1;stroke:none;stroke-width:0.40000001;stroke-miterlimit:4;stroke-dasharray:none"
         id="text4218-6-0">
        <path
           d="m 170.4221,372.70571 q 1.05625,0.70417 0.52812,1.58438 2.28856,0.35209 4.04898,0 0.52813,-0.17604 1.05625,0.17605 1.40834,0.70417 1.40834,1.58438 0.52813,2.11251 -0.88021,4.22502 -1.05625,1.76042 -3.16876,1.93647 -0.70417,0 -1.05626,-0.35209 0,-0.35208 1.40834,-0.88021 1.58438,-1.05626 1.76043,-3.16877 0.17604,-1.40834 -0.52813,-1.93646 -0.88021,-0.35209 -2.46459,-0.35209 -1.05626,0.17604 -1.93647,-0.17604 -0.88021,1.58438 -2.81668,3.16876 -0.88021,0.70417 -1.58438,0.88022 -0.88022,0 -0.70417,-0.52813 0.35208,-0.35209 1.93646,-1.76043 1.58439,-1.93646 1.76043,-4.04897 0,-0.70417 1.2323,-0.35209 z m 1.76042,4.22502 q 0.52813,-0.17604 0.88021,-0.17604 1.05626,0 0.70417,1.05625 -0.17604,1.05626 -0.35208,2.11251 -0.17604,0.52813 -1.05626,0.35209 -1.05625,-0.17604 -2.11251,0 -0.52812,2.28855 1.05626,2.81668 1.93647,0.52813 4.40106,0.17604 2.11251,-0.35208 3.87293,-1.58438 0.35209,0 0.35209,0.17604 -0.52813,2.28855 -1.76043,3.52085 -1.40834,0.88021 -2.46459,0.70417 -3.69689,-0.17604 -5.28127,-1.2323 -1.58439,-0.88021 -1.93647,-3.3448 0,-1.76043 0.70417,-4.04898 0.35208,-0.35209 1.05625,-0.17604 1.2323,-0.17605 1.93647,-0.35209 z m -7.56983,-2.28855 q 0.17605,2.99272 -0.35208,5.45732 1.76042,1.40834 3.34481,2.99272 0.17604,0.88021 -0.70417,0.70417 -1.76043,-1.2323 -3.16877,-2.11251 -0.70417,1.58438 -1.93647,2.64064 -0.88021,0.70417 -1.58438,0.70417 -1.93646,-0.17605 -1.76042,-0.88022 0.35208,-0.52812 1.58438,-1.23229 1.93647,-1.05626 2.81668,-2.99273 0.70417,-3.52085 -0.35209,-5.63336 -0.35208,-0.70416 0.52813,-1.05625 1.76043,0.17604 1.58438,1.40834 z m -2.64063,1.40834 q 0,0.70417 0,1.40834 0,1.40834 -0.52813,2.11251 -0.35209,0 -0.52813,-0.52813 -0.17604,-1.93647 -0.70417,-3.16876 0,-0.70417 0.70417,-0.88022 0.88021,-0.17604 1.05626,1.05626 z m 4.75314,-0.70417 q 0.35209,0.52813 -0.17604,1.58438 -0.35208,0.70417 -0.70417,0.88021 -0.35208,0 -0.35208,-1.58438 0,-0.52813 -0.17605,-0.88021 0,-0.52813 0.52813,-0.52813 0.52813,0.17604 0.88021,0.52813 z m 3.6969,2.99272 q -0.35209,0.52813 0,1.05626 h 1.58438 q 0.70417,-0.52813 0.52813,-1.2323 -1.05626,-0.17604 -2.11251,0.17604 z"
           style="font-style:normal;font-variant:normal;font-weight:normal;font-stretch:normal;font-family:LiSu;-inkscape-font-specification:LiSu;fill:#ff0000;fill-opacity:1;stroke-width:0.40000001;stroke-miterlimit:4;stroke-dasharray:none"
           id="path204" />
      </g>
    </g>
    <g
       id="c"
       inkscape:label="#g999">
      <ellipse
         ry="14.899658"
         rx="14.89966"
         style="fill:#ffffff;fill-opacity:1;stroke:#000000;stroke-width:0.40000001;stroke-miterlimit:4;stroke-dasharray:none;stroke-opacity:1"
         cy="459.9173"
         cx="152.2498"
         id="path506-6-2-4" />
      <circle
         r="12.42885"
         style="fill:none;fill-opacity:1;stroke:#000000;stroke-width:1.2;stroke-miterlimit:4;stroke-dasharray:none;stroke-opacity:1"
         cy="459.9173"
         cx="152.2498"
         id="path495-8-9-7" />
      <g
         aria-label="炮"
         transform="scale(0.90168252,1.1090378)"
         style="font-style:normal;font-variant:normal;font-weight:normal;font-stretch:normal;font-size:22.53343582px;line-height:1.25;font-family:STKaiti;-inkscape-font-specification:STKaiti;letter-spacing:0px;word-spacing:0px;fill:#000000;fill-opacity:1;stroke:none;stroke-width:0.40000001;stroke-miterlimit:4;stroke-dasharray:none"
         id="text4218-0-0-2">
        <path
           d="m 170.07,407.79672 q 1.05625,0.70417 0.52813,1.58438 2.28855,0.35208 4.04897,0 0.52813,-0.17604 1.05626,0.17604 1.40834,0.70417 1.40834,1.58438 0.52813,2.11251 -0.88021,4.22502 -1.05626,1.76043 -3.16877,1.93647 -0.70417,0 -1.05625,-0.35209 0,-0.35208 1.40834,-0.88021 1.58438,-1.05625 1.76042,-3.16876 0.17604,-1.40834 -0.52813,-1.93647 -0.88021,-0.35208 -2.46459,-0.35208 -1.05626,0.17604 -1.93647,-0.17605 -0.88021,1.58439 -2.81668,3.16877 -0.88021,0.70417 -1.58438,0.88021 -0.88021,0 -0.70417,-0.52813 0.35208,-0.35208 1.93647,-1.76042 1.58438,-1.93647 1.76042,-4.04898 0,-0.70417 1.2323,-0.35208 z m 1.76042,4.22502 q 0.52813,-0.17605 0.88022,-0.17605 1.05625,0 0.70417,1.05626 -0.17605,1.05625 -0.35209,2.11251 -0.17604,0.52812 -1.05625,0.35208 -1.05626,-0.17604 -2.11251,0 -0.52813,2.28855 1.05625,2.81668 1.93647,0.52813 4.40106,0.17604 2.11251,-0.35208 3.87294,-1.58438 0.35208,0 0.35208,0.17604 -0.52813,2.28856 -1.76042,3.52085 -1.40834,0.88022 -2.4646,0.70417 -3.69689,-0.17604 -5.28127,-1.23229 -1.58438,-0.88022 -1.93647,-3.34481 0,-1.76043 0.70417,-4.04898 0.35209,-0.35208 1.05626,-0.17604 1.23229,-0.17604 1.93646,-0.35208 z m -7.56982,-2.28856 q 0.17604,2.99273 -0.35209,5.45732 1.76043,1.40834 3.34481,2.99272 0.17604,0.88021 -0.70417,0.70417 -1.76042,-1.2323 -3.16876,-2.11251 -0.70417,1.58438 -1.93647,2.64064 -0.88021,0.70417 -1.58438,0.70417 -1.93647,-0.17604 -1.76043,-0.88021 0.35209,-0.52813 1.58438,-1.2323 1.93647,-1.05626 2.81668,-2.99272 0.70417,-3.52085 -0.35208,-5.63336 -0.35209,-0.70417 0.52813,-1.05626 1.76042,0.17605 1.58438,1.40834 z m -2.64064,1.40834 q 0,0.70417 0,1.40834 0,1.40834 -0.52813,2.11251 -0.35208,0 -0.52812,-0.52813 -0.17605,-1.93646 -0.70417,-3.16876 0,-0.70417 0.70417,-0.88021 0.88021,-0.17604 1.05625,1.05625 z m 4.75315,-0.70417 q 0.35208,0.52813 -0.17605,1.58439 -0.35208,0.70417 -0.70417,0.88021 -0.35208,0 -0.35208,-1.58438 0,-0.52813 -0.17604,-0.88022 0,-0.52812 0.52812,-0.52812 0.52813,0.17604 0.88022,0.52812 z m 3.69689,2.99273 q -0.35209,0.52812 0,1.05625 h 1.58438 q 0.70417,-0.52813 0.52813,-1.2323 -1.05626,-0.17604 -2.11251,0.17605 z"
           style="font-style:normal;font-variant:normal;font-weight:normal;font-stretch:normal;font-family:LiSu;-inkscape-font-specification:LiSu;fill:#000000;fill-opacity:1;stroke-width:0.40000001;stroke-miterlimit:4;stroke-dasharray:none"
           id="path225" />
      </g>
    </g>
    <g
       id="P"
       inkscape:label="#g1005">
      <ellipse
         ry="14.899658"
         rx="14.89966"
         style="fill:#ffffff;fill-opacity:1;stroke:#ff0000;stroke-width:0.40000001;stroke-miterlimit:4;stroke-dasharray:none;stroke-opacity:1"
         cy="421"
         cx="185.35094"
         id="path506-64-5-9" />
      <circle
         r="12.42885"
         style="fill:none;fill-opacity:1;stroke:#f70000;stroke-width:1.2;stroke-miterlimit:4;stroke-dasharray:none;stroke-opacity:1"
         cy="421"
         cx="185.35094"
         id="path495-0-9-1" />
      <g
         aria-label="兵 "
         transform="scale(0.90168252,1.1090378)"
         style="font-style:normal;font-variant:normal;font-weight:normal;font-stretch:normal;font-size:22.53343582px;line-height:1.25;font-family:STKaiti;-inkscape-font-specification:STKaiti;letter-spacing:0px;word-spacing:0px;fill:#ff0000;fill-opacity:1;stroke:none;stroke-width:0.40000001;stroke-miterlimit:4;stroke-dasharray:none"
         id="text4218-6-0-7">
        <path
           d="m 202.2033,379.57137 q 1.58438,0.17604 4.04898,0 0.17604,-1.2323 0,-1.58438 -2.28856,-0.35209 -4.22502,0 -0.17605,0.88021 0.17604,1.58438 z m -1.93647,-6.16149 q 1.05626,-0.17604 1.58438,0.35209 4.92919,0.17604 7.39379,-0.88021 1.58438,-0.52813 1.76042,0.70417 0.17604,0.70416 -0.70417,0.70416 -1.93647,0.35209 -3.87293,0.52813 -4.22502,0.35209 -4.57711,1.05626 0,0.70417 0.70417,0.52812 5.10523,0.17605 10.21047,0 1.05625,1.05626 -0.70417,1.40834 -1.58439,-0.17604 -3.6969,0 -0.35208,0.70417 0,1.76043 6.33753,0.52813 7.92192,0.52813 -1.93647,3.52085 -4.57711,1.93646 -2.99272,-1.23229 -8.45004,-1.05625 -4.22502,0.17604 -7.0417,1.2323 -1.23229,0.52812 -1.05625,-0.52813 0.70417,-2.11251 1.76042,-1.93647 2.28856,0.17604 2.99273,0 0.52812,-0.88021 0,-3.87293 -1.05626,-2.11251 0.35208,-2.4646 z m 2.4646,8.45004 q 0.70417,-0.52813 1.23229,0 0.70417,0.88021 0,1.58438 -3.16876,2.11251 -5.63336,2.4646 -1.05625,0.17604 -0.70417,-0.52813 2.99273,-1.40834 5.10524,-3.52085 z m 6.86565,0.52813 q 1.58438,1.58438 3.87294,3.16876 0,0.52813 -0.70417,0.35209 -2.28856,-0.70417 -4.92919,-2.4646 -1.05626,-0.70417 -0.70417,-1.23229 1.05625,-1.40834 2.46459,0.17604 z"
           style="font-style:normal;font-variant:normal;font-weight:normal;font-stretch:normal;font-family:LiSu;-inkscape-font-specification:LiSu;fill:#ff0000;fill-opacity:1;stroke-width:0.40000001;stroke-miterlimit:4;stroke-dasharray:none"
           id="path207" />
      </g>
    </g>
    <g
       id="p"
       inkscape:label="#g1047">
      <ellipse
         ry="14.899658"
         rx="14.89966"
         style="fill:#ffffff;fill-opacity:1;stroke:#000000;stroke-width:0.40000001;stroke-miterlimit:4;stroke-dasharray:none;stroke-opacity:1"
         cy="459.9173"
         cx="184.4632"
         id="path506-6-2-4-1" />
      <circle
         r="12.42885"
         style="fill:none;fill-opacity:1;stroke:#000000;stroke-width:1.2;stroke-miterlimit:4;stroke-dasharray:none;stroke-opacity:1"
         cy="459.9173"
         cx="184.4632"
         id="path495-8-9-7-3" />
      <g
         aria-label="卒"
         transform="scale(0.90168252,1.1090378)"
         style="font-style:normal;font-variant:normal;font-weight:normal;font-stretch:normal;font-size:22.53343582px;line-height:1.25;font-family:STKaiti;-inkscape-font-specification:STKaiti;letter-spacing:0px;word-spacing:0px;fill:#000000;fill-opacity:1;stroke:none;stroke-width:0.40000001;stroke-miterlimit:4;stroke-dasharray:none"
         id="text4218-0-0-2-7">
        <path
           d="m 204.21148,407.26859 q 1.40834,0.17604 1.58438,1.76042 1.93647,0.17605 5.63336,0.35209 0.35208,0 0.52813,0.35208 0,0.52813 -0.52813,0.70417 h -2.81668 q -0.35209,0.35209 -0.35209,0.88022 1.58439,1.05625 3.34481,2.64063 0.35209,0.35209 -0.35208,0.52813 -0.52813,0 -1.2323,-0.17604 -1.76043,-0.88021 -2.4646,-1.93647 -0.70417,1.05626 -2.11251,1.76042 l 0.17605,0.70417 q 5.8094,0.52813 9.85838,0.52813 -0.88022,2.81668 -3.16877,2.28855 -2.64064,-1.05625 -6.68961,-1.40834 -0.17605,2.4646 0,4.04898 0,0.52813 -0.52813,1.05626 -2.11251,0.70417 -1.93647,-0.35209 0.35209,-2.28855 0,-4.5771 -4.5771,0.35208 -8.45004,1.23229 -1.05625,0.17605 -0.70417,-1.05625 0.70417,-1.2323 2.4646,-1.40834 3.34481,0.17604 6.68961,-0.35209 0,-0.88021 0.52813,-1.23229 -0.88021,-0.52813 -1.93647,-1.05626 -1.58438,1.76043 -2.64063,2.11251 -1.93647,0.17604 -1.58439,-0.88021 2.99273,-1.2323 3.87294,-3.52085 -2.11251,0 -3.87294,0.52813 -1.23229,0.17604 -0.88021,-0.70417 0.70417,-1.2323 1.93647,-1.2323 0.88021,0.17604 4.5771,0.35209 -0.17604,-1.76043 1.05626,-1.93647 z m 0.17604,5.98544 0.70417,0.35209 q 1.2323,-1.2323 1.93647,-3.16877 h -4.22502 q -0.35209,0.88022 -0.52813,1.05626 2.64064,0.70417 2.11251,1.76042 z"
           style="font-style:normal;font-variant:normal;font-weight:normal;font-stretch:normal;font-family:LiSu;-inkscape-font-specification:LiSu;fill:#000000;fill-opacity:1;stroke-width:0.40000001;stroke-miterlimit:4;stroke-dasharray:none"
           id="path228" />
      </g>
    </g>
    <g
       id="A"
       inkscape:label="#g1011">
      <ellipse
         ry="14.899658"
         rx="14.89966"
         style="fill:#ffffff;fill-opacity:1;stroke:#ff0000;stroke-width:0.40000001;stroke-miterlimit:4;stroke-dasharray:none;stroke-opacity:1"
         cy="421"
         cx="218.13458"
         id="path506-64-5-9-1" />
      <circle
         r="12.42885"
         style="fill:none;fill-opacity:1;stroke:#f70000;stroke-width:1.2;stroke-miterlimit:4;stroke-dasharray:none;stroke-opacity:1"
         cy="421"
         cx="218.13458"
         id="path495-0-9-1-2" />
      <g
         aria-label="仕 "
         transform="scale(0.90168252,1.1090378)"
         style="font-style:normal;font-variant:normal;font-weight:normal;font-stretch:normal;font-size:22.53343582px;line-height:1.25;font-family:STKaiti;-inkscape-font-specification:STKaiti;letter-spacing:0px;word-spacing:0px;fill:#ff0000;fill-opacity:1;stroke:none;stroke-width:0.40000001;stroke-miterlimit:4;stroke-dasharray:none"
         id="text4218-6-0-7-0">
        <path
           d="m 240.67411,376.75469 q 0.88022,0 2.11251,-0.17604 0.17605,-2.4646 0.17605,-3.87294 0.70417,-0.88021 1.58438,-0.17604 0.70417,0.35209 1.05625,1.05626 -0.17604,0.88021 -0.17604,2.99272 4.04898,0.35208 7.0417,0.35208 0.70417,0 0.17604,0.70417 -1.05625,2.11251 -3.87293,1.2323 -1.58438,-0.35209 -3.34481,-0.70417 v 4.22502 q 0.17604,0.70417 0.88021,0.70417 1.2323,0 2.28856,0.17604 2.11251,0.35209 2.11251,1.05626 0,0.52812 -0.70417,0.52812 -2.64064,-0.17604 -5.80941,-0.17604 -3.52085,0 -5.28127,0.35209 -1.05625,0.35208 -0.88021,-0.88022 0.52813,-1.23229 1.58438,-1.23229 0.52813,0.17604 1.58438,0.17604 1.93647,-0.17604 1.76043,-0.88021 v -4.04898 q -2.28856,0 -4.75315,0.70417 -0.88021,0 -0.52813,-1.2323 0.70417,-0.88021 1.40834,-1.05625 0.52813,-0.17605 1.58438,0.17604 z m -4.40106,-2.99272 q 0.88022,-0.70417 2.11251,-1.05626 0.52813,-0.17604 0.52813,0.35209 -0.35208,1.05625 -0.70417,1.40834 -0.70417,1.05625 -1.2323,1.58438 0,4.75315 0,8.274 0.17605,1.40834 -1.23229,1.76042 -0.35209,0 -0.70417,0 -0.52813,-0.35208 -0.52813,-1.58438 0.52813,-1.58438 0.35208,-3.16877 v -4.22502 q -1.23229,0.52813 -2.28855,0.52813 -0.52813,-0.17604 -1.05625,-0.88021 -0.35209,-0.35209 -0.52813,-1.05626 0,-0.35208 0.70417,-0.52812 1.2323,-0.17605 2.28855,-0.52813 1.05626,-0.35209 2.28855,-0.88021 z"
           style="font-style:normal;font-variant:normal;font-weight:normal;font-stretch:normal;font-family:LiSu;-inkscape-font-specification:LiSu;fill:#ff0000;fill-opacity:1;stroke-width:0.40000001;stroke-miterlimit:4;stroke-dasharray:none"
           id="path210" />
      </g>
    </g>
    <g
       id="a"
       inkscape:label="#g1041">
      <ellipse
         ry="14.899658"
         rx="14.89966"
         style="fill:#ffffff;fill-opacity:1;stroke:#000000;stroke-width:0.40000001;stroke-miterlimit:4;stroke-dasharray:none;stroke-opacity:1"
         cy="459.9173"
         cx="216.67654"
         id="path506-6-2-4-1-5" />
      <circle
         r="12.42885"
         style="fill:none;fill-opacity:1;stroke:#000000;stroke-width:1.2;stroke-miterlimit:4;stroke-dasharray:none;stroke-opacity:1"
         cy="459.9173"
         cx="216.67654"
         id="path495-8-9-7-3-2" />
      <g
         aria-label="士"
         transform="scale(0.90168252,1.1090378)"
         style="font-style:normal;font-variant:normal;font-weight:normal;font-stretch:normal;font-size:22.53343582px;line-height:1.25;font-family:STKaiti;-inkscape-font-specification:STKaiti;letter-spacing:0px;word-spacing:0px;fill:#000000;fill-opacity:1;stroke:none;stroke-width:0.40000001;stroke-miterlimit:4;stroke-dasharray:none"
         id="text4218-0-0-2-7-3">
        <path
           d="m 250.85194,412.54986 q -0.35208,2.28855 -1.58438,2.64064 -0.88021,0.17604 -2.81668,-0.52813 -2.4646,-0.70417 -5.28128,-0.88021 -0.17604,2.11251 0,4.5771 2.99273,0.17605 6.33753,0.70417 0.70417,0.17605 0.88022,0.70417 0.17604,0.88022 -1.40834,0.88022 l -2.28856,-0.17605 q -3.87293,-0.52812 -7.56982,-0.35208 -2.28855,0 -3.52085,0.70417 -1.2323,0.52813 -0.88021,-1.05626 0.88021,-1.40834 1.93646,-1.40834 0.17605,0.17605 1.40834,0.17605 1.58439,-0.17605 2.64064,-0.17605 0.17604,-1.93646 0,-4.5771 -5.45732,0.17604 -8.09795,1.2323 -0.88022,0.35208 -0.88022,-0.88022 0.17605,-0.88021 0.70417,-1.40833 1.2323,-0.70417 2.64064,-0.35209 2.64064,0 5.63336,-0.35208 v -2.99273 q 0,-0.70417 0.88021,-1.23229 1.93647,0 1.76043,1.23229 -0.17605,1.05626 -0.17605,2.99273 8.97817,0.35208 9.68234,0.52812 z"
           style="font-style:normal;font-variant:normal;font-weight:normal;font-stretch:normal;font-family:LiSu;-inkscape-font-specification:LiSu;fill:#000000;fill-opacity:1;stroke-width:0.40000001;stroke-miterlimit:4;stroke-dasharray:none"
           id="path231" />
      </g>
    </g>
    <g
       id="B"
       inkscape:label="#g1017">
      <ellipse
         ry="14.899658"
         rx="14.89966"
         style="fill:#ffffff;fill-opacity:1;stroke:#ff0000;stroke-width:0.40000001;stroke-miterlimit:4;stroke-dasharray:none;stroke-opacity:1"
         cy="421"
         cx="250.91821"
         id="path506-64-5-9-1-9" />
      <circle
         r="12.42885"
         style="fill:none;fill-opacity:1;stroke:#f70000;stroke-width:1.2;stroke-miterlimit:4;stroke-dasharray:none;stroke-opacity:1"
         cy="421"
         cx="250.91821"
         id="path495-0-9-1-2-5" />
      <g
         aria-label="相 "
         transform="scale(0.90168252,1.1090378)"
         style="font-style:normal;font-variant:normal;font-weight:normal;font-stretch:normal;font-size:22.53343582px;line-height:1.25;font-family:STKaiti;-inkscape-font-specification:STKaiti;letter-spacing:0px;word-spacing:0px;fill:#ff0000;fill-opacity:1;stroke:none;stroke-width:0.40000001;stroke-miterlimit:4;stroke-dasharray:none"
         id="text4218-6-0-7-0-7">
        <path
           d="m 273.15947,376.93073 q -1.40834,0 -2.99272,0.52813 -0.70417,0.17604 -0.52813,-0.88021 0.70417,-1.2323 1.58439,-1.05626 1.23229,0.17604 1.93646,0 0.17604,-0.70417 -0.17604,-1.76042 -0.35209,-1.2323 1.05625,-1.40834 1.40834,0 1.2323,1.05625 v 2.11251 h 1.40834 q 0.70417,0 1.05626,0.35209 0.35208,0.70417 -0.70417,0.88021 -1.05626,0 -1.76043,0.17604 v 0.70417 q 0.70417,0.52813 1.2323,1.05626 0.88021,0.88021 1.40834,1.58438 0.35208,0.88021 -0.52813,0.70417 -0.70417,-0.17604 -2.11251,-1.2323 v 4.57711 q 0.17604,1.76042 -1.05625,1.93646 -1.40834,0.17605 -1.2323,-1.76042 0.35208,-2.4646 0.17604,-5.10523 -0.88021,0.88021 -1.93646,2.11251 -1.58439,1.58438 -2.99273,0.70417 -0.70417,-0.35209 -0.52812,-0.88022 0.52812,-0.35208 1.76042,-0.88021 3.34481,-1.76042 3.69689,-3.52085 z m 7.0417,-2.46459 q 1.76043,0.17604 3.52085,0 0.70417,-0.17605 1.2323,-0.35209 2.11251,-0.17604 1.76042,1.58438 -0.17604,1.05626 -0.17604,1.93647 -0.17604,3.52085 -0.17604,6.33753 0.35208,1.58438 -1.05626,1.40834 -0.52812,-0.17604 -1.40834,-0.52813 -1.76042,-0.35208 -3.3448,0 -0.52813,0.17605 -1.05626,0.52813 -0.88021,0.17604 -1.05625,-0.88021 0.17604,-2.28855 0,-4.57711 0,-2.28855 -0.35209,-4.5771 0,-1.58438 2.11251,-0.88021 z m 0.70417,1.23229 q -1.2323,0.17605 -0.70417,1.76043 1.2323,0.17604 2.4646,0.17604 2.28855,0.17604 1.93646,-1.40834 0,-0.52813 -0.88021,-0.52813 -1.40834,-0.17604 -2.81668,0 z m 3.34481,3.16877 q -1.76043,-0.35209 -3.87294,0 -0.35208,0.88021 0,1.58438 1.93647,0.52813 3.6969,0.17604 0.70417,-0.70417 0.17604,-1.76042 z m 0,3.16876 q -2.4646,-0.35208 -3.87294,0 -0.35208,1.05626 0.17605,1.58439 1.58438,0.17604 3.16876,0 1.05626,-0.35209 0.52813,-1.58439 z"
           style="font-style:normal;font-variant:normal;font-weight:normal;font-stretch:normal;font-family:LiSu;-inkscape-font-specification:LiSu;fill:#ff0000;fill-opacity:1;stroke-width:0.40000001;stroke-miterlimit:4;stroke-dasharray:none"
           id="path213" />
      </g>
    </g>
    <g
       id="b"
       inkscape:label="#g1035"
       transform="translate(0.45622385)">
      <ellipse
         ry="14.899658"
         rx="14.89966"
         style="fill:#ffffff;fill-opacity:1;stroke:#000000;stroke-width:0.40000001;stroke-miterlimit:4;stroke-dasharray:none;stroke-opacity:1"
         cy="459.9173"
         cx="248.88992"
         id="path506-6-2-4-1-5-1" />
      <circle
         r="12.42885"
         style="fill:none;fill-opacity:1;stroke:#000000;stroke-width:1.20000005;stroke-miterlimit:4;stroke-dasharray:none;stroke-opacity:1"
         cy="459.9173"
         cx="248.88992"
         id="path495-8-9-7-3-2-4" />
      <g
         aria-label="象"
         transform="scale(0.90168252,1.1090378)"
         style="font-style:normal;font-variant:normal;font-weight:normal;font-stretch:normal;font-size:22.53343582px;line-height:1.25;font-family:STKaiti;-inkscape-font-specification:STKaiti;letter-spacing:0px;word-spacing:0px;fill:#000000;fill-opacity:1;stroke:none;stroke-width:0.56333596"
         id="text4218-0-0-2-7-3-0">
        <path
           d="m 280.94444,413.07799 q -2.46459,0 -4.22502,0.17604 0.70417,0.70417 1.05626,1.2323 l 0.88021,0.35208 q 0.88021,-0.17604 1.40834,-0.70417 0.88021,-1.05625 1.58438,-0.52812 0.70417,0.52812 0.17604,1.05625 -1.23229,0.52813 -2.11251,0.52813 3.16877,1.93647 7.0417,2.64064 -2.28855,2.64063 -4.22502,1.40834 -2.11251,-1.76043 -4.5771,-3.52085 0.88021,3.3448 -0.70417,4.92919 -0.88021,1.05625 -2.46459,0.88021 -1.76043,-0.52813 -2.28856,-1.58438 0,-0.52813 0.52813,-0.17605 2.11251,0.52813 2.81668,-0.35208 0.88021,-1.05626 0.52813,-2.28855 -4.75315,3.3448 -8.80213,3.69689 -1.05625,0.17604 -1.76042,-0.88021 -0.35208,-0.70417 0.35208,-0.70417 4.40107,0.17604 10.03443,-3.16877 l -0.17605,-0.70417 q -1.76042,1.40834 -5.10523,2.11251 -1.76042,-0.17604 -1.2323,-0.70417 0.70417,-0.17604 1.58439,-0.35208 2.64063,-0.70417 4.40106,-1.93647 l -0.35209,-0.52813 q -2.64063,1.58438 -5.45731,1.76043 -1.76043,0 -2.11251,-0.70417 0,-0.17605 0.52812,-0.17605 3.6969,0 6.16149,-1.76042 -0.70417,-0.17604 -2.11251,0.17604 -0.88021,0.52813 -1.58438,0.35209 -0.70417,-0.52813 -0.52813,-1.2323 0.35209,-0.52813 0.52813,-1.40834 -1.76043,0.70417 -2.81668,0.52813 -2.28855,-0.70417 -1.76043,-1.76043 4.92919,-0.35208 9.33026,-2.46459 0.70417,-0.35209 1.05625,0 0.52813,0.35208 0.17604,0.88021 0.52813,0.35209 0.88022,0.35209 1.76042,-0.35209 1.40834,0.88021 -0.35209,0.35208 -1.40834,0.88021 1.93646,0 3.3448,0.17604 2.4646,-0.70417 2.28855,1.05626 -0.17604,0.70417 -0.17604,1.2323 -0.35208,1.40833 -2.11251,0.35208 z m -5.28127,-1.93647 h -3.16877 q -0.88021,1.2323 0.17605,1.2323 l 2.46459,-0.17604 z m 1.40834,1.05626 h 3.87293 q 0.70417,-0.52813 0.17604,-0.88021 h -3.52084 z m -1.58438,-3.34481 q -1.76043,0.70417 -2.64064,1.2323 1.05625,0 3.16876,0 0.52813,-0.17604 0.70417,-0.88021 -0.52812,-0.52813 -1.23229,-0.35209 z"
           style="font-style:normal;font-variant:normal;font-weight:normal;font-stretch:normal;font-family:LiSu;-inkscape-font-specification:LiSu;fill:#000000;fill-opacity:1;stroke-width:0.56333596"
           id="path234" />
      </g>
    </g>
    <g
       id="K"
       inkscape:label="#g1023"
       inkscape:export-filename="C:\Users\keers\Desktop\RedLink.png"
       inkscape:export-xdpi="9536.6416"
       inkscape:export-ydpi="9536.6416">
      <ellipse
         ry="14.899658"
         rx="14.89966"
         style="fill:#ffffff;fill-opacity:1;stroke:#ff0000;stroke-width:0.40000001;stroke-miterlimit:4;stroke-dasharray:none;stroke-opacity:1"
         cy="421"
         cx="283.70187"
         id="path506-64-5-9-1-1" />
      <circle
         r="12.42885"
         style="fill:none;fill-opacity:1;stroke:#f70000;stroke-width:1.2;stroke-miterlimit:4;stroke-dasharray:none;stroke-opacity:1"
         cy="421"
         cx="283.70187"
         id="path495-0-9-1-2-3" />
      <g
         aria-label="帅 "
         transform="scale(0.90168252,1.1090378)"
         style="font-style:normal;font-variant:normal;font-weight:normal;font-stretch:normal;font-size:22.53343582px;line-height:1.25;font-family:STKaiti;-inkscape-font-specification:STKaiti;letter-spacing:0px;word-spacing:0px;fill:#ff0000;fill-opacity:1;stroke:none;stroke-width:0.40000001;stroke-miterlimit:4;stroke-dasharray:none"
         id="text4218-6-0-7-0-4">
        <path
           d="m 315.15114,375.34635 h 1.76042 q 0,-1.2323 0,-2.28855 0,-0.52813 0.52813,-0.70417 0.70417,0 1.40834,0.52813 0.52813,0.52812 0.35208,2.46459 1.40834,-0.17604 2.4646,0 1.40834,-0.88021 1.76042,0.70417 -0.35208,3.69689 0,6.86566 0.17605,1.58438 -0.88021,1.58438 -1.40834,0.35208 -1.2323,-1.40834 0,-3.16877 0,-5.8094 0,-0.70417 -1.05625,-0.70417 h -1.05626 v 8.80212 q -0.17604,0.70417 -1.40833,0.88021 -0.88022,0.17605 -0.88022,-0.70417 v -8.97816 h -0.88021 q -1.05625,0 -1.05625,0.70417 0,1.93646 0,3.87293 -0.17605,1.93647 -1.05626,2.99272 -0.88021,0.70417 -1.93647,0.35209 -0.88021,-0.52813 -0.52812,-0.88021 0.52812,-0.35209 1.05625,-1.05626 1.40834,-2.28855 0.88021,-6.33753 0,-1.76042 1.76043,-0.88021 z m -6.86566,-0.52813 q 0,1.40834 -0.17604,2.81668 0,1.40834 0,2.99272 0,1.40834 -1.05626,1.2323 -0.70417,-0.17604 -0.70417,-1.05625 0.52813,-2.64064 0,-5.63336 0,-1.05626 0.52813,-1.2323 1.2323,-0.17604 1.40834,0.88021 z m 2.99272,-1.93646 q 0.88022,0.52812 0.70417,2.1125 -0.17604,1.40834 -0.17604,4.04898 0,2.99272 -1.2323,4.40106 -2.64063,3.16877 -5.28127,1.93647 -1.2323,-0.88021 -0.35209,-1.2323 3.6969,-0.17604 4.92919,-3.16876 0.70417,-3.34481 0,-6.68962 0,-0.35208 0,-0.70416 0.35209,-1.05626 1.40834,-0.70417 z"
           style="font-style:normal;font-variant:normal;font-weight:normal;font-stretch:normal;font-family:LiSu;-inkscape-font-specification:LiSu;fill:#ff0000;fill-opacity:1;stroke-width:0.40000001;stroke-miterlimit:4;stroke-dasharray:none"
           id="path216" />
      </g>
    </g>
    <g
       id="k"
       inkscape:label="#g1029"
       inkscape:export-filename="C:\Users\keers\Desktop\icon\BlackLink.png"
       inkscape:export-xdpi="953.66418"
       inkscape:export-ydpi="953.66418">
      <ellipse
         ry="14.899658"
         rx="14.89966"
         style="fill:#ffffff;fill-opacity:1;stroke:#000000;stroke-width:0.40000001;stroke-miterlimit:4;stroke-dasharray:none;stroke-opacity:1"
         cy="459.9173"
         cx="281.10327"
         id="path506-6-2-4-1-5-6" />
      <circle
         r="12.42885"
         style="fill:none;fill-opacity:1;stroke:#000000;stroke-width:1.2;stroke-miterlimit:4;stroke-dasharray:none;stroke-opacity:1"
         cy="459.9173"
         cx="281.10327"
         id="path495-8-9-7-3-2-41" />
      <g
         aria-label="将"
         transform="scale(0.90168252,1.1090378)"
         style="font-style:normal;font-variant:normal;font-weight:normal;font-stretch:normal;font-size:22.53343582px;line-height:1.25;font-family:STKaiti;-inkscape-font-specification:STKaiti;letter-spacing:0px;word-spacing:0px;fill:#000000;fill-opacity:1;stroke:none;stroke-width:0.40000001;stroke-miterlimit:4;stroke-dasharray:none"
         id="text4218-0-0-2-7-3-2">
        <path
           d="m 308.39625,415.89467 q 0.70417,-1.40834 1.58438,-1.2323 2.81668,0.17604 5.98544,-0.17604 v -1.40834 q 0.52813,-0.88021 1.58438,-0.52813 0.70417,0.35209 0.70417,0.88022 v 1.05625 h 0.70417 q 2.99273,0 3.52085,0.17604 -0.35208,0.88021 -1.05625,1.58438 -0.70417,0.52813 -1.40834,0 -0.88021,-0.52812 -1.76043,-0.52812 v 2.11251 q -0.35208,4.5771 -4.5771,3.52085 -0.88021,-0.17605 -1.58438,-0.52813 -0.88021,-0.70417 -1.05626,-0.88021 -0.35208,-0.52813 0.35209,-0.52813 0.52813,0.35208 1.76042,0.52813 3.16877,0.35208 2.81668,-2.28856 v -2.11251 h -2.11251 q -2.64063,0.17605 -4.40106,0.88022 -1.05625,0.35208 -1.05625,-0.52813 z m -7.0417,1.05625 q 2.46459,-0.70417 4.92919,-2.28855 -0.35209,-7.21774 0.70417,-7.0417 1.40834,-0.17604 1.40834,1.2323 -0.17605,0.70417 -0.17605,1.40834 -0.17604,5.10523 0,9.68234 0,1.58438 -1.05625,1.40834 -1.2323,0.17604 -0.88021,-5.63336 -1.76043,1.40834 -2.4646,1.93646 -1.93647,1.2323 -2.46459,0.35209 -0.52813,-0.70417 0,-1.05626 z m 10.56255,-0.88021 q 0.52812,-0.52813 1.05625,0 0.52813,0.88021 1.40834,1.76043 0.35208,0.52812 -0.35209,0.52812 -0.88021,0 -1.76042,-0.52812 -1.2323,-0.88022 -0.35208,-1.76043 z m -0.17605,-4.92919 q 0.52813,-0.52812 1.40834,-0.17604 l 1.05626,0.52813 q 0.35208,0.52813 -1.2323,0.52813 -1.40834,0 -1.2323,-0.88022 z m -8.97816,-1.05625 q 0.52812,-0.70417 1.40834,0 0.70417,1.05625 1.93646,2.28855 0,0.35209 -0.17604,0.35209 -1.58438,0 -2.81668,-0.88022 -1.05625,-0.88021 -0.35208,-1.76042 z m 11.44276,-2.81668 q 0.35208,-0.52813 0.88021,-0.17604 0.52813,0.17604 0.88021,0.70417 0,0.52812 -0.88021,0.88021 2.46459,0.52813 3.87293,0.70417 1.40834,0.88021 -0.17604,1.76042 l -2.11251,1.05626 q -1.76042,0.88021 -4.22502,1.76042 -1.93646,0.70417 -3.16876,0.35209 -0.35209,-0.35209 -0.35209,-0.52813 0,-0.35208 0.35209,-0.35208 1.40834,-0.35209 2.99272,-0.70417 1.93647,-0.52813 3.87293,-1.76043 0.70417,-0.35208 0.17605,-0.88021 -1.05626,-0.52813 -1.93647,-0.35209 l -2.64064,0.88022 q -2.28855,0.88021 -2.64063,0 0,-0.17605 1.58438,-0.70417 2.46459,-1.2323 3.52085,-2.64064 z"
           style="font-style:normal;font-variant:normal;font-weight:normal;font-stretch:normal;font-family:LiSu;-inkscape-font-specification:LiSu;fill:#000000;fill-opacity:1;stroke-width:0.40000001;stroke-miterlimit:4;stroke-dasharray:none"
           id="path237" />
      </g>
    </g>
    <ellipse
       id="path506-6-2-4-1-5-6-0"
       cx="202.56339"
       cy="511.92679"
       style="fill:#ffffff;fill-opacity:1;stroke:#83d200;stroke-width:0.40000001;stroke-miterlimit:4;stroke-dasharray:none;stroke-opacity:1"
       rx="14.89966"
       ry="14.899658"
       inkscape:export-filename="C:\Users\keers\Desktop\icon\backThink.png"
       inkscape:export-xdpi="953.66418"
       inkscape:export-ydpi="953.66418" />
    <circle
       id="path495-8-9-7-3-2-41-2"
       cx="202.56339"
       cy="511.92679"
       style="fill:none;fill-opacity:1;stroke:#0000db;stroke-width:1.2;stroke-miterlimit:4;stroke-dasharray:none;stroke-opacity:1"
       r="12.42885"
       inkscape:export-filename="C:\Users\keers\Desktop\icon\backThink.png"
       inkscape:export-xdpi="953.66418"
       inkscape:export-ydpi="953.66418" />
    <text
       xml:space="preserve"
       style="font-style:normal;font-weight:normal;font-size:17.57486534px;line-height:1.25;font-family:sans-serif;letter-spacing:0px;word-spacing:0px;fill:#2a00f1;fill-opacity:1;stroke:none;stroke-width:0.43937165;"
       x="182.35425"
       y="547.20526"
       id="text942"
       transform="scale(1.0592007,0.94410813)"
       inkscape:export-filename="C:\Users\keers\Desktop\icon\backThink.png"
       inkscape:export-xdpi="953.66418"
       inkscape:export-ydpi="953.66418"><tspan
         sodipodi:role="line"
         id="tspan940"
         x="182.35425"
         y="547.20526"
         style="stroke-width:0.43937165;fill:#2a00f1;fill-opacity:1;">后</tspan></text>
  </g>
</svg>
